<svg xmlns="http://www.w3.org/2000/svg" data-name="Layer 1" viewBox="0 0 90.96 79.325" x="0px" y="0px">
  <title>Email</title>
  <path d="M95.45,19.43a1.05,1.05,0,0,0-.17-0.5,1.25,1.25,0,0,0-.07-0.14l-0.06-.05a1.28,1.28,0,0,0-.21-0.18,0.89,0.89,0,0,0-.43-0.21,1.28,1.28,0,0,0-.26-0.05l-0.08,0H5.84l-0.08,0a1.29,1.29,0,0,0-.26.05,1.29,1.29,0,0,0-.24.08,1.28,1.28,0,0,0-.19.13,1.29,1.29,0,0,0-.21.18l-0.06.05a1.25,1.25,0,0,0-.07.14,1.05,1.05,0,0,0-.17.5,1.22,1.22,0,0,0,0,.16V80.41a1.32,1.32,0,0,0,1.32,1.32H94.16a1.32,1.32,0,0,0,1.32-1.32V19.59A1.22,1.22,0,0,0,95.45,19.43Zm-5.16,1.48L50,51.83,9.71,20.91H90.29ZM7.15,79.09V22.26l42,32.28a1.32,1.32,0,0,0,1.61,0l42-32.28V79.09H7.15Z" transform="translate(-4.52 -18.27)"/>
</svg>