<svg width="302" height="252" viewBox="0 0 302 252" fill="none" xmlns="http://www.w3.org/2000/svg">
<g clip-path="url(#clip0)">
<path d="M140.797 129V6L70.3986 129H140.797Z" fill="white"/>
<path d="M0 252L70.3986 129M140.797 252V129M140.797 129V6L70.3986 129M140.797 129H70.3986M140.797 129L302 -1.5M140.797 129L302 252" stroke="white" stroke-width="12"/>
<path d="M302 244L151.5 129L302 7V244Z" fill="#00239E"/>
<path d="M147.5 251.5V142.5L291 251.5H147.5Z" fill="#00239E"/>
<path d="M134.262 252H7.5L74.2105 135.5H134.262V252Z" fill="#00239E"/>
<path d="M0 239V0H137L0 239Z" fill="#0F3FD5"/>
<path d="M81.5 122.5L134 30.5H134.294V122.5H81.5Z" fill="#0F3FD5"/>
<path d="M147.5 115V0H290L147.5 115Z" fill="#0F3FD5"/>
</g>
<defs>
<clipPath id="clip0">
<rect width="302" height="252" fill="white"/>
</clipPath>
</defs>
</svg>
