<svg xmlns="http://www.w3.org/2000/svg" xmlns:xlink="http://www.w3.org/1999/xlink" version="1.1" x="0px" y="0px" viewBox="0 0 24 30" style="enable-background:new 0 0 24 24;" xml:space="preserve"><g><g><path d="M12,17.5c-3,0-5.5-2.5-5.5-5.5S9,6.5,12,6.5S17.5,9,17.5,12S15,17.5,12,17.5z M12,7.3c-2.6,0-4.7,2.1-4.7,4.7    s2.1,4.7,4.7,4.7s4.7-2.1,4.7-4.7S14.6,7.3,12,7.3z"/></g><g><path d="M12,2.9c-0.2,0-0.4-0.2-0.4-0.4V0.6c0-0.2,0.2-0.4,0.4-0.4s0.4,0.2,0.4,0.4v1.8C12.4,2.7,12.2,2.9,12,2.9z"/></g><g><path d="M12,23.8c-0.2,0-0.4-0.2-0.4-0.4v-1.8c0-0.2,0.2-0.4,0.4-0.4s0.4,0.2,0.4,0.4v1.8C12.4,23.6,12.2,23.8,12,23.8z"/></g><g><path d="M2.5,12.4H0.6c-0.2,0-0.4-0.2-0.4-0.4s0.2-0.4,0.4-0.4h1.8c0.2,0,0.4,0.2,0.4,0.4S2.7,12.4,2.5,12.4z"/></g><g><path d="M23.4,12.4h-1.8c-0.2,0-0.4-0.2-0.4-0.4s0.2-0.4,0.4-0.4h1.8c0.2,0,0.4,0.2,0.4,0.4S23.6,12.4,23.4,12.4z"/></g><g><path d="M5.3,5.7c-0.1,0-0.2,0-0.3-0.1L3.7,4.3c-0.2-0.2-0.2-0.4,0-0.6c0.2-0.2,0.4-0.2,0.6,0L5.5,5c0.2,0.2,0.2,0.4,0,0.6    C5.5,5.6,5.4,5.7,5.3,5.7z"/></g><g><path d="M20,20.4c-0.1,0-0.2,0-0.3-0.1L18.5,19c-0.2-0.2-0.2-0.4,0-0.6s0.4-0.2,0.6,0l1.3,1.3c0.2,0.2,0.2,0.4,0,0.6    C20.2,20.4,20.1,20.4,20,20.4z"/></g><g><path d="M4,20.4c-0.1,0-0.2,0-0.3-0.1c-0.2-0.2-0.2-0.4,0-0.6L5,18.5c0.2-0.2,0.4-0.2,0.6,0s0.2,0.4,0,0.6l-1.3,1.3    C4.2,20.4,4.1,20.4,4,20.4z"/></g><g><path d="M18.7,5.7c-0.1,0-0.2,0-0.3-0.1c-0.2-0.2-0.2-0.4,0-0.6l1.3-1.3c0.2-0.2,0.4-0.2,0.6,0s0.2,0.4,0,0.6L19,5.5    C18.9,5.6,18.8,5.7,18.7,5.7z"/></g></g></svg>