<?xml version="1.0" standalone="no"?>
<!DOCTYPE svg PUBLIC "-//W3C//DTD SVG 20010904//EN"
 "http://www.w3.org/TR/2001/REC-SVG-20010904/DTD/svg10.dtd">
<svg version="1.0" xmlns="http://www.w3.org/2000/svg"
 width="604.000000pt" height="604.000000pt" viewBox="0 0 604.000000 604.000000"
 preserveAspectRatio="xMidYMid meet">
<metadata>
Created by potrace 1.14, written by Peter Selinger 2001-2017
</metadata>
<g transform="translate(0.000000,604.000000) scale(0.100000,-0.100000)"
fill="#000000" stroke="none">
<path d="M0 3153 c0 -1312 2 -2384 4 -2382 5 5 53 87 88 150 14 24 78 136 143
249 65 113 161 279 213 370 52 91 105 183 118 205 13 22 29 51 36 65 12 24
119 209 138 240 5 8 31 53 57 99 26 47 63 110 80 140 18 31 36 63 40 71 4 8
26 47 48 85 23 39 55 95 72 125 17 30 78 136 135 235 57 99 107 187 111 195 4
8 16 29 27 45 11 17 23 37 27 45 4 8 46 84 95 168 48 83 88 155 88 159 0 3 6
14 14 22 7 9 27 41 43 71 17 30 92 163 168 295 76 132 161 281 189 330 27 50
54 92 58 93 4 2 8 8 8 13 0 5 34 69 77 142 42 72 90 157 106 187 17 30 33 57
36 60 3 3 15 23 27 45 38 73 59 110 65 115 3 3 12 20 20 38 8 17 17 32 21 32
5 0 8 5 8 10 0 6 18 40 40 76 22 36 40 67 40 69 0 2 23 43 51 92 28 48 85 147
126 218 41 72 86 149 99 173 l25 42 -1371 0 -1370 0 0 -2387z"/>
<path d="M2950 4389 l0 -1151 33 28 c18 16 50 43 71 59 22 17 56 44 76 60 20
17 54 44 76 62 21 17 90 72 153 123 62 50 120 98 128 106 8 8 17 14 21 14 4 0
24 15 44 34 20 19 63 54 95 79 32 25 68 53 79 63 12 11 36 30 54 44 18 14 41
32 50 40 10 8 35 29 56 45 34 27 348 281 399 323 11 9 65 53 120 97 55 44 105
84 112 90 7 5 18 15 25 20 33 26 115 92 133 107 18 15 306 247 330 265 29 23
171 139 175 143 3 3 50 41 105 85 55 43 102 82 105 85 3 3 25 21 50 40 25 19
47 37 50 40 3 3 71 58 153 123 81 65 147 120 147 123 0 2 -639 4 -1420 4
l-1420 0 0 -1151z"/>
<path d="M5900 5288 c-74 -60 -155 -126 -179 -146 -24 -21 -65 -53 -90 -72
-25 -19 -50 -40 -56 -46 -5 -6 -68 -58 -140 -115 -71 -57 -132 -106 -135 -109
-3 -3 -39 -32 -80 -65 -41 -33 -77 -62 -80 -65 -3 -3 -63 -52 -135 -110 -71
-57 -132 -107 -135 -110 -3 -3 -21 -17 -42 -32 -20 -15 -42 -33 -50 -40 -7 -8
-33 -29 -58 -48 -58 -45 -89 -71 -112 -92 -10 -10 -22 -18 -27 -18 -5 0 -11
-4 -13 -8 -1 -4 -50 -46 -108 -92 -58 -47 -107 -87 -110 -90 -3 -3 -36 -30
-75 -61 -92 -74 -465 -376 -487 -394 -9 -8 -41 -34 -70 -57 -29 -24 -62 -51
-73 -60 -11 -10 -72 -59 -135 -109 -63 -51 -116 -96 -118 -101 -2 -4 -10 -8
-17 -8 -7 0 -15 -4 -17 -9 -1 -5 -41 -39 -88 -77 -47 -37 -120 -96 -162 -130
l-78 -63 38 -28 c20 -15 39 -30 42 -33 11 -12 253 -196 272 -207 11 -6 23 -15
27 -20 3 -5 44 -37 91 -72 47 -36 97 -74 112 -85 14 -12 39 -31 55 -43 87 -66
231 -176 253 -193 14 -11 95 -73 180 -138 282 -214 335 -255 340 -261 3 -3 13
-10 22 -16 14 -9 233 -175 278 -212 8 -7 51 -39 95 -72 44 -33 85 -64 90 -69
6 -5 29 -22 51 -38 22 -16 46 -35 54 -42 8 -7 62 -48 120 -92 58 -44 110 -83
115 -87 6 -5 48 -37 95 -73 47 -35 99 -76 116 -90 17 -14 41 -32 54 -40 19
-13 53 -38 115 -88 6 -5 78 -59 160 -122 177 -135 162 -123 203 -156 l32 -26
0 2371 c0 1304 -1 2371 -2 2370 -2 0 -64 -50 -138 -111z"/>
<path d="M2673 4918 c-4 -7 -15 -26 -24 -43 -20 -38 -136 -241 -160 -280 -11
-16 -22 -37 -26 -45 -8 -17 -89 -158 -103 -180 -6 -8 -13 -21 -17 -29 -3 -8
-35 -64 -70 -124 -35 -60 -63 -112 -63 -114 0 -3 -8 -17 -19 -31 -10 -15 -32
-52 -48 -82 -17 -30 -58 -104 -93 -165 -35 -60 -68 -119 -75 -130 -17 -31 -78
-137 -98 -170 -10 -16 -23 -42 -30 -57 -6 -16 -15 -28 -19 -28 -4 0 -8 -4 -8
-9 0 -8 -122 -229 -150 -271 -5 -8 -17 -27 -25 -42 l-16 -28 529 0 528 0 0
920 c0 506 -1 920 -3 920 -1 0 -5 -6 -10 -12z"/>
<path d="M1360 2613 c-69 -120 -129 -225 -135 -234 -14 -24 -36 -63 -75 -134
-18 -33 -44 -77 -57 -97 -13 -21 -23 -40 -23 -44 0 -3 -8 -18 -19 -32 -10 -15
-31 -49 -45 -77 -15 -27 -35 -63 -45 -80 -10 -16 -126 -219 -258 -450 -133
-231 -250 -436 -262 -455 -11 -19 -29 -51 -39 -70 -11 -19 -71 -125 -134 -235
l-115 -200 1256 -3 c691 -1 1261 0 1266 2 7 2 10 392 10 1162 l0 1159 -600 3
-601 2 -124 -217z"/>
<path d="M2950 1601 l0 -1091 1432 0 c892 0 1428 4 1423 9 -6 6 -64 50 -130
100 -66 50 -126 96 -134 103 -8 6 -46 35 -85 65 -99 74 -128 96 -142 111 -7 6
-18 12 -24 12 -6 0 -13 7 -16 15 -4 8 -11 15 -16 15 -6 0 -35 20 -64 45 -28
25 -57 45 -62 45 -6 0 -12 4 -14 8 -1 4 -86 71 -188 148 -102 77 -223 169
-270 205 -47 36 -179 137 -295 224 -115 88 -217 165 -225 172 -8 6 -36 28 -62
47 -100 74 -382 289 -392 298 -6 5 -56 43 -111 84 -55 42 -110 84 -123 95 -12
10 -25 19 -30 19 -4 0 -21 14 -39 30 -18 17 -36 30 -42 30 -5 0 -11 4 -13 8
-1 4 -50 44 -108 87 -58 44 -109 83 -115 87 -5 4 -43 33 -82 64 l-73 55 0
-1090z"/>
</g>
</svg>
